# xmcd CD database file
#
# Track frame offsets:
#	150
#	12642
#	27410
#	41700
#	63912
#	77992
#	99545
#	113760
#	126415
#	144480
#	160892
#	177735
#
# Disc length: 2538 seconds
#
# Revision: 0
# Processed by: cddbd v1.5.2PL0 Copyright (c) Steve Scherf et al.
# Submitted via: CDex 1.72
#
DISCID=ab09e80c
DTITLE=Quaid, Jerry (99-Rodeo Active-Cty.rck) - Rodeo Active
DYEAR=1999
DGENRE=Country
TTITLE0=Rodeo Active
TTITLE1=Heart By Storm
TTITLE2=Lovin' Turned To Leavin'
TTITLE3=Someday
TTITLE4=Can't See Through The Tears
TTITLE5=Comin' Home
TTITLE6=I Need Your Love
TTITLE7=Give Me Some Time
TTITLE8=Alone Tonight
TTITLE9=Showdown
TTITLE10=Take It From Me
TTITLE11=Player Of The Game
EXTD=YEAR: 1999
EXTT0=
EXTT1=
EXTT2=
EXTT3=
EXTT4=
EXTT5=
EXTT6=
EXTT7=
EXTT8=
EXTT9=
EXTT10=
EXTT11=
PLAYORDER=
